<?xml version="1.0" encoding="UTF-8"?>
<svg width="16px" height="18px" viewBox="0 0 16 18" version="1.1" xmlns="http://www.w3.org/2000/svg" xmlns:xlink="http://www.w3.org/1999/xlink">
    <title>pause</title>
    <g id="Page-1" stroke="none" stroke-width="1" fill="none" fill-rule="evenodd">
        <g id="Large" transform="translate(-120, -151)" fill="#5FAE96">
            <path d="M122.147341,151.25 L124.147341,151.25 C125.25191,151.25 126.147341,152.145431 126.147341,153.25 L126.147341,166.75 C126.147341,167.854569 125.25191,168.75 124.147341,168.75 L122.147341,168.75 C121.042771,168.75 120.147341,167.854569 120.147341,166.75 L120.147341,153.25 C120.147341,152.145431 121.042771,151.25 122.147341,151.25 Z M131.33653,151.25 L133.33653,151.25 C134.4411,151.25 135.33653,152.145431 135.33653,153.25 L135.33653,166.75 C135.33653,167.854569 134.4411,168.75 133.33653,168.75 L131.33653,168.75 C130.231961,168.75 129.33653,167.854569 129.33653,166.75 L129.33653,153.25 C129.33653,152.145431 130.231961,151.25 131.33653,151.25 Z" id="pause"></path>
        </g>
    </g>
</svg>