<?xml version="1.0" encoding="UTF-8"?>
<svg width="55px" height="55px" viewBox="0 0 55 55" version="1.1" xmlns="http://www.w3.org/2000/svg" xmlns:xlink="http://www.w3.org/1999/xlink">
    <title>penthadecathlon</title>
    <g id="Page-1" stroke="none" stroke-width="1" fill="none" fill-rule="evenodd">
        <g id="Large" transform="translate(-223, -596)">
            <g id="penthadecathlon" transform="translate(223.0122, 596.1654)">
                <rect id="Rectangle-Copy-35" fill="#FFFFFF" x="0" y="0" width="54" height="54" rx="8"></rect>
                <g id="Group-2" transform="translate(19.4063, 6.75)" fill="#5FAE96" stroke="#FFFFFF" stroke-width="0.5">
                    <rect id="Rectangle-Copy-21" x="-3.55271368e-15" y="35.4375" width="5.0625" height="5.0625"></rect>
                    <rect id="Rectangle-Copy-20" x="10.125" y="35.4375" width="5.0625" height="5.0625"></rect>
                    <rect id="Rectangle-Copy-19" x="5.0625" y="35.4375" width="5.0625" height="5.0625"></rect>
                    <rect id="Rectangle-Copy-21" x="-3.55271368e-15" y="30.375" width="5.0625" height="5.0625"></rect>
                    <rect id="Rectangle-Copy-20" x="10.125" y="30.375" width="5.0625" height="5.0625"></rect>
                    <rect id="Rectangle-Copy-21" x="-3.55271368e-15" y="25.3125" width="5.0625" height="5.0625"></rect>
                    <rect id="Rectangle-Copy-20" x="10.125" y="25.3125" width="5.0625" height="5.0625"></rect>
                    <rect id="Rectangle-Copy-19" x="5.0625" y="25.3125" width="5.0625" height="5.0625"></rect>
                    <rect id="Rectangle-Copy-21" x="-3.55271368e-15" y="20.25" width="5.0625" height="5.0625"></rect>
                    <rect id="Rectangle-Copy-20" x="10.125" y="20.25" width="5.0625" height="5.0625"></rect>
                    <rect id="Rectangle-Copy-19" x="5.0625" y="20.25" width="5.0625" height="5.0625"></rect>
                    <rect id="Rectangle-Copy-21" x="-3.55271368e-15" y="15.1875" width="5.0625" height="5.0625"></rect>
                    <rect id="Rectangle-Copy-20" x="10.125" y="15.1875" width="5.0625" height="5.0625"></rect>
                    <rect id="Rectangle-Copy-19" x="5.0625" y="15.1875" width="5.0625" height="5.0625"></rect>
                    <rect id="Rectangle-Copy-21" x="-3.55271368e-15" y="10.125" width="5.0625" height="5.0625"></rect>
                    <rect id="Rectangle-Copy-20" x="10.125" y="10.125" width="5.0625" height="5.0625"></rect>
                    <rect id="Rectangle-Copy-19" x="5.0625" y="10.125" width="5.0625" height="5.0625"></rect>
                    <rect id="Rectangle-Copy-21" x="-3.55271368e-15" y="5.0625" width="5.0625" height="5.0625"></rect>
                    <rect id="Rectangle-Copy-20" x="10.125" y="5.0625" width="5.0625" height="5.0625"></rect>
                    <rect id="Rectangle-Copy-21" x="-3.55271368e-15" y="0" width="5.0625" height="5.0625"></rect>
                    <rect id="Rectangle-Copy-20" x="10.125" y="0" width="5.0625" height="5.0625"></rect>
                    <rect id="Rectangle-Copy-19" x="5.0625" y="0" width="5.0625" height="5.0625"></rect>
                </g>
            </g>
        </g>
    </g>
</svg>