<?xml version="1.0" encoding="UTF-8"?>
<svg width="55px" height="55px" viewBox="0 0 55 55" version="1.1" xmlns="http://www.w3.org/2000/svg" xmlns:xlink="http://www.w3.org/1999/xlink">
    <title>pulsar</title>
    <g id="Page-1" stroke="none" stroke-width="1" fill="none" fill-rule="evenodd">
        <g id="Large" transform="translate(-159, -596)">
            <g id="pulsar" transform="translate(159.8507, 596.1654)">
                <rect id="Rectangle-Copy-31" fill="#FFFFFF" x="0" y="0" width="54" height="54" rx="8"></rect>
                <g id="Group" transform="translate(7.0934, 7)" fill="#5FAE96" stroke="#FFFFFF" stroke-width="0.4">
                    <rect id="Rectangle-Copy-24" x="4.78902983" y="0" width="3.49367158" height="3.49367158"></rect>
                    <rect id="Rectangle-Copy-23" x="11.776373" y="0" width="3.49367158" height="3.49367158"></rect>
                    <rect id="Rectangle-Copy-22" x="8.28270141" y="0" width="3.49367158" height="3.49367158"></rect>
                    <rect id="Rectangle-Copy-24" x="4.78902983" y="15.2700446" width="3.49367158" height="3.49367158"></rect>
                    <rect id="Rectangle-Copy-23" x="11.776373" y="15.2700446" width="3.49367158" height="3.49367158"></rect>
                    <rect id="Rectangle-Copy-22" x="8.28270141" y="15.2700446" width="3.49367158" height="3.49367158"></rect>
                    <polygon id="Rectangle-Copy-27" transform="translate(17.0169, 6.5359) rotate(180) translate(-17.0169, -6.5359)" points="15.2700446 4.78902983 18.7637162 4.78902983 18.7637162 8.28270141 15.2700446 8.28270141"></polygon>
                    <polygon id="Rectangle-Copy-26" transform="translate(17.0169, 13.5232) rotate(180) translate(-17.0169, -13.5232)" points="15.2700446 11.776373 18.7637162 11.776373 18.7637162 15.2700446 15.2700446 15.2700446"></polygon>
                    <polygon id="Rectangle-Copy-25" transform="translate(17.0169, 10.0295) rotate(180) translate(-17.0169, -10.0295)" points="15.2700446 8.28270141 18.7637162 8.28270141 18.7637162 11.776373 15.2700446 11.776373"></polygon>
                    <polygon id="Rectangle-Copy-27" transform="translate(1.7468, 6.5359) rotate(180) translate(-1.7468, -6.5359)" points="1.62958676e-12 4.78902983 3.49367158 4.78902983 3.49367158 8.28270141 1.62958676e-12 8.28270141"></polygon>
                    <polygon id="Rectangle-Copy-26" transform="translate(1.7468, 13.5232) rotate(180) translate(-1.7468, -13.5232)" points="1.6955555e-12 11.776373 3.49367158 11.776373 3.49367158 15.2700446 1.6955555e-12 15.2700446"></polygon>
                    <polygon id="Rectangle-Copy-25" transform="translate(1.7468, 10.0295) rotate(180) translate(-1.7468, -10.0295)" points="1.5684631e-12 8.28270141 3.49367158 8.28270141 3.49367158 11.776373 1.5684631e-12 11.776373"></polygon>
                    <rect id="Rectangle-Copy-24" x="24.543243" y="0" width="3.49367158" height="3.49367158"></rect>
                    <rect id="Rectangle-Copy-23" x="31.5305862" y="0" width="3.49367158" height="3.49367158"></rect>
                    <rect id="Rectangle-Copy-22" x="28.0369146" y="0" width="3.49367158" height="3.49367158"></rect>
                    <rect id="Rectangle-Copy-24" x="24.543243" y="15.2700446" width="3.49367158" height="3.49367158"></rect>
                    <rect id="Rectangle-Copy-23" x="31.5305862" y="15.2700446" width="3.49367158" height="3.49367158"></rect>
                    <rect id="Rectangle-Copy-22" x="28.0369146" y="15.2700446" width="3.49367158" height="3.49367158"></rect>
                    <polygon id="Rectangle-Copy-27" transform="translate(38.0665, 6.5359) rotate(180) translate(-38.0665, -6.5359)" points="36.319616 4.78902983 39.8132876 4.78902983 39.8132876 8.28270141 36.319616 8.28270141"></polygon>
                    <polygon id="Rectangle-Copy-26" transform="translate(38.0665, 13.5232) rotate(180) translate(-38.0665, -13.5232)" points="36.319616 11.776373 39.8132876 11.776373 39.8132876 15.2700446 36.319616 15.2700446"></polygon>
                    <polygon id="Rectangle-Copy-25" transform="translate(38.0665, 10.0295) rotate(180) translate(-38.0665, -10.0295)" points="36.319616 8.28270141 39.8132876 8.28270141 39.8132876 11.776373 36.319616 11.776373"></polygon>
                    <polygon id="Rectangle-Copy-27" transform="translate(22.7964, 6.5359) rotate(180) translate(-22.7964, -6.5359)" points="21.0495714 4.78902983 24.543243 4.78902983 24.543243 8.28270141 21.0495714 8.28270141"></polygon>
                    <polygon id="Rectangle-Copy-26" transform="translate(22.7964, 13.5232) rotate(180) translate(-22.7964, -13.5232)" points="21.0495714 11.776373 24.543243 11.776373 24.543243 15.2700446 21.0495714 15.2700446"></polygon>
                    <polygon id="Rectangle-Copy-25" transform="translate(22.7964, 10.0295) rotate(180) translate(-22.7964, -10.0295)" points="21.0495714 8.28270141 24.543243 8.28270141 24.543243 11.776373 21.0495714 11.776373"></polygon>
                    <rect id="Rectangle-Copy-24" x="4.78902983" y="21.2362838" width="3.49367158" height="3.49367158"></rect>
                    <rect id="Rectangle-Copy-23" x="11.776373" y="21.2362838" width="3.49367158" height="3.49367158"></rect>
                    <rect id="Rectangle-Copy-22" x="8.28270141" y="21.2362838" width="3.49367158" height="3.49367158"></rect>
                    <rect id="Rectangle-Copy-24" x="4.78902983" y="36.5063284" width="3.49367158" height="3.49367158"></rect>
                    <rect id="Rectangle-Copy-23" x="11.776373" y="36.5063284" width="3.49367158" height="3.49367158"></rect>
                    <rect id="Rectangle-Copy-22" x="8.28270141" y="36.5063284" width="3.49367158" height="3.49367158"></rect>
                    <polygon id="Rectangle-Copy-27" transform="translate(17.0169, 26.4768) rotate(180) translate(-17.0169, -26.4768)" points="15.2700446 24.7299554 18.7637162 24.7299554 18.7637162 28.223627 15.2700446 28.223627"></polygon>
                    <polygon id="Rectangle-Copy-26" transform="translate(17.0169, 33.4641) rotate(180) translate(-17.0169, -33.4641)" points="15.2700446 31.7172986 18.7637162 31.7172986 18.7637162 35.2109702 15.2700446 35.2109702"></polygon>
                    <polygon id="Rectangle-Copy-25" transform="translate(17.0169, 29.9705) rotate(180) translate(-17.0169, -29.9705)" points="15.2700446 28.223627 18.7637162 28.223627 18.7637162 31.7172986 15.2700446 31.7172986"></polygon>
                    <polygon id="Rectangle-Copy-27" transform="translate(1.7468, 26.4768) rotate(180) translate(-1.7468, -26.4768)" points="1.39040725e-12 24.7299554 3.49367158 24.7299554 3.49367158 28.223627 1.39040725e-12 28.223627"></polygon>
                    <polygon id="Rectangle-Copy-26" transform="translate(1.7468, 33.4641) rotate(180) translate(-1.7468, -33.4641)" points="1.51427598e-12 31.7172986 3.49367158 31.7172986 3.49367158 35.2109702 1.51427598e-12 35.2109702"></polygon>
                    <polygon id="Rectangle-Copy-25" transform="translate(1.7468, 29.9705) rotate(180) translate(-1.7468, -29.9705)" points="1.49309745e-12 28.223627 3.49367158 28.223627 3.49367158 31.7172986 1.49309745e-12 31.7172986"></polygon>
                    <rect id="Rectangle-Copy-24" x="24.543243" y="21.2362838" width="3.49367158" height="3.49367158"></rect>
                    <rect id="Rectangle-Copy-23" x="31.5305862" y="21.2362838" width="3.49367158" height="3.49367158"></rect>
                    <rect id="Rectangle-Copy-22" x="28.0369146" y="21.2362838" width="3.49367158" height="3.49367158"></rect>
                    <rect id="Rectangle-Copy-24" x="24.543243" y="36.5063284" width="3.49367158" height="3.49367158"></rect>
                    <rect id="Rectangle-Copy-23" x="31.5305862" y="36.5063284" width="3.49367158" height="3.49367158"></rect>
                    <rect id="Rectangle-Copy-22" x="28.0369146" y="36.5063284" width="3.49367158" height="3.49367158"></rect>
                    <polygon id="Rectangle-Copy-27" transform="translate(38.0665, 26.4768) rotate(180) translate(-38.0665, -26.4768)" points="36.319616 24.7299554 39.8132876 24.7299554 39.8132876 28.223627 36.319616 28.223627"></polygon>
                    <polygon id="Rectangle-Copy-26" transform="translate(38.0665, 33.4641) rotate(180) translate(-38.0665, -33.4641)" points="36.319616 31.7172986 39.8132876 31.7172986 39.8132876 35.2109702 36.319616 35.2109702"></polygon>
                    <polygon id="Rectangle-Copy-25" transform="translate(38.0665, 29.9705) rotate(180) translate(-38.0665, -29.9705)" points="36.319616 28.223627 39.8132876 28.223627 39.8132876 31.7172986 36.319616 31.7172986"></polygon>
                    <polygon id="Rectangle-Copy-27" transform="translate(22.7964, 26.4768) rotate(180) translate(-22.7964, -26.4768)" points="21.0495714 24.7299554 24.543243 24.7299554 24.543243 28.223627 21.0495714 28.223627"></polygon>
                    <polygon id="Rectangle-Copy-26" transform="translate(22.7964, 33.4641) rotate(180) translate(-22.7964, -33.4641)" points="21.0495714 31.7172986 24.543243 31.7172986 24.543243 35.2109702 21.0495714 35.2109702"></polygon>
                    <polygon id="Rectangle-Copy-25" transform="translate(22.7964, 29.9705) rotate(180) translate(-22.7964, -29.9705)" points="21.0495714 28.223627 24.543243 28.223627 24.543243 31.7172986 21.0495714 31.7172986"></polygon>
                </g>
            </g>
        </g>
    </g>
</svg>