<?xml version="1.0" encoding="UTF-8"?>
<svg width="55px" height="55px" viewBox="0 0 55 55" version="1.1" xmlns="http://www.w3.org/2000/svg" xmlns:xlink="http://www.w3.org/1999/xlink">
    <title>spaceship2</title>
    <g id="Page-1" stroke="none" stroke-width="1" fill="none" fill-rule="evenodd">
        <g id="Large" transform="translate(-93, -495)">
            <g id="spaceship2" transform="translate(93.1473, 495.1654)">
                <rect id="Rectangle-Copy-44" fill="#FFFFFF" x="0" y="0" width="54" height="54" rx="8"></rect>
                <g id="Group-10" transform="translate(5.3573, 12.5)" fill="#5FAE96" stroke="#FFFFFF">
                    <rect id="Rectangle-Copy-12" x="28.7854485" y="7.25" width="7.25" height="7.25" rx="1"></rect>
                    <rect id="Rectangle-Copy-36" x="28.7854485" y="14.5" width="7.25" height="7.25" rx="1"></rect>
                    <rect id="Rectangle-Copy-38" x="21.5354485" y="14.5" width="7.25" height="7.25" rx="1"></rect>
                    <rect id="Rectangle-Copy-37" x="21.5354485" y="21.75" width="7.25" height="7.25" rx="1"></rect>
                    <rect id="Rectangle-Copy-40" x="14.2854485" y="14.5" width="7.25" height="7.25" rx="1"></rect>
                    <rect id="Rectangle-Copy-39" x="14.2854485" y="21.75" width="7.25" height="7.25" rx="1"></rect>
                    <rect id="Rectangle-Copy-45" x="7.14272424" y="21.75" width="7.25" height="7.25" rx="1"></rect>
                    <rect id="Rectangle-Copy-42" x="7.14272424" y="7.25" width="7.25" height="7.25" rx="1"></rect>
                    <rect id="Rectangle-Copy-43" x="14.3927242" y="7.25" width="7.25" height="7.25" rx="1"></rect>
                    <rect id="Rectangle-Copy-41" x="7.14272424" y="14.5" width="7.25" height="7.25" rx="1"></rect>
                    <rect id="Rectangle-Copy-47" x="0" y="7.25" width="7.25" height="7.25" rx="1"></rect>
                    <rect id="Rectangle-Copy-46" x="0" y="14.5" width="7.25" height="7.25" rx="1"></rect>
                    <rect id="Rectangle-Copy-11" x="36.0354485" y="7.25" width="7.25" height="7.25" rx="1"></rect>
                    <rect id="Rectangle-Copy-9" x="28.7854485" y="0" width="7.25" height="7.25" rx="1"></rect>
                    <rect id="Rectangle-Copy-17" x="21.5354485" y="0" width="7.25" height="7.25" rx="1"></rect>
                </g>
            </g>
        </g>
    </g>
</svg>