<?xml version="1.0" encoding="UTF-8"?>
<svg width="55px" height="55px" viewBox="0 0 55 55" version="1.1" xmlns="http://www.w3.org/2000/svg" xmlns:xlink="http://www.w3.org/1999/xlink">
    <title>spaceship3</title>
    <g id="Page-1" stroke="none" stroke-width="1" fill="none" fill-rule="evenodd">
        <g id="Large" transform="translate(-159, -495)">
            <g id="spaceship3" transform="translate(159.8507, 495.1654)">
                <rect id="Rectangle-Copy-63" fill="#FFFFFF" x="0" y="0" width="54" height="54" rx="8"></rect>
                <g id="Group-9" transform="translate(5.2175, 14.5)" fill="#5FAE96" stroke="#FFFFFF">
                    <rect id="Rectangle-Copy-62" x="31.0650418" y="6.25" width="6.25" height="6.25" rx="1"></rect>
                    <rect id="Rectangle-Copy-61" x="31.0650418" y="12.5" width="6.25" height="6.25" rx="1"></rect>
                    <rect id="Rectangle-Copy-60" x="24.8150418" y="12.5" width="6.25" height="6.25" rx="1"></rect>
                    <rect id="Rectangle-Copy-59" x="24.8150418" y="18.75" width="6.25" height="6.25" rx="1"></rect>
                    <rect id="Rectangle-Copy-58" x="18.5650418" y="12.5" width="6.25" height="6.25" rx="1"></rect>
                    <rect id="Rectangle-Copy-57" x="18.5650418" y="18.75" width="6.25" height="6.25" rx="1"></rect>
                    <rect id="Rectangle-Copy-56" x="12.4075209" y="18.75" width="6.25" height="6.25" rx="1"></rect>
                    <rect id="Rectangle-Copy-64" x="6.25" y="18.75" width="6.25" height="6.25" rx="1"></rect>
                    <rect id="Rectangle-Copy-55" x="12.4075209" y="6.25" width="6.25" height="6.25" rx="1"></rect>
                    <rect id="Rectangle-Copy-54" x="18.6575209" y="6.25" width="6.25" height="6.25" rx="1"></rect>
                    <rect id="Rectangle-Copy-53" x="12.4075209" y="12.5" width="6.25" height="6.25" rx="1"></rect>
                    <rect id="Rectangle-Copy-52" x="6.25" y="6.25" width="6.25" height="6.25" rx="1"></rect>
                    <rect id="Rectangle-Copy-51" x="6.25" y="12.5" width="6.25" height="6.25" rx="1"></rect>
                    <rect id="Rectangle-Copy-66" x="0" y="6.25" width="6.25" height="6.25" rx="1"></rect>
                    <rect id="Rectangle-Copy-65" x="0" y="12.5" width="6.25" height="6.25" rx="1"></rect>
                    <rect id="Rectangle-Copy-50" x="37.3150418" y="6.25" width="6.25" height="6.25" rx="1"></rect>
                    <rect id="Rectangle-Copy-49" x="31.0650418" y="0" width="6.25" height="6.25" rx="1"></rect>
                    <rect id="Rectangle-Copy-48" x="24.8150418" y="0" width="6.25" height="6.25" rx="1"></rect>
                </g>
            </g>
        </g>
    </g>
</svg>